<?xml version="1.0" encoding="UTF-8" standalone="no"?>
<!DOCTYPE svg PUBLIC "-//W3C//DTD SVG 1.1//EN"
 "http://www.w3.org/Graphics/SVG/1.1/DTD/svg11.dtd">
<!-- Generated by graphviz version 2.43.0 (0)
 -->
<!-- Title: G Pages: 1 -->
<svg width="1212pt" height="1772pt"
 viewBox="0.00 0.00 1212.00 1772.00" xmlns="http://www.w3.org/2000/svg" xmlns:xlink="http://www.w3.org/1999/xlink">
<g id="graph0" class="graph" transform="scale(1 1) rotate(0) translate(4 1768)">
<title>G</title>
<polygon fill="white" stroke="transparent" points="-4,4 -4,-1768 1208,-1768 1208,4 -4,4"/>
<!-- 12 0 0 -->
<g id="node1" class="node">
<title>12 0 0</title>
<ellipse fill="none" stroke="blue" cx="416" cy="-1746" rx="40.09" ry="18"/>
<text text-anchor="middle" x="416" y="-1742.3" font-family="Times,serif" font-size="14.00">12 0 0</text>
</g>
<!-- 4 8 0 -->
<g id="node2" class="node">
<title>4 8 0</title>
<ellipse fill="none" stroke="black" cx="649" cy="-1674" rx="34.39" ry="18"/>
<text text-anchor="middle" x="649" y="-1670.3" font-family="Times,serif" font-size="14.00">4 8 0</text>
</g>
<!-- 12 0 0&#45;&gt;4 8 0 -->
<g id="edge1" class="edge">
<title>12 0 0&#45;&gt;4 8 0</title>
<path fill="none" stroke="black" d="M446.86,-1734.22C488.68,-1720.96 563.07,-1698.62 609.08,-1685.49"/>
<polygon fill="black" stroke="black" points="610.06,-1688.85 618.73,-1682.76 608.15,-1682.12 610.06,-1688.85"/>
</g>
<!-- 7 0 5 -->
<g id="node3" class="node">
<title>7 0 5</title>
<ellipse fill="none" stroke="black" cx="487" cy="-1242" rx="34.39" ry="18"/>
<text text-anchor="middle" x="487" y="-1238.3" font-family="Times,serif" font-size="14.00">7 0 5</text>
</g>
<!-- 12 0 0&#45;&gt;7 0 5 -->
<g id="edge2" class="edge">
<title>12 0 0&#45;&gt;7 0 5</title>
<path fill="none" stroke="black" d="M388.21,-1732.73C349.28,-1711.39 284,-1663.83 284,-1603 284,-1603 284,-1603 284,-1529 284,-1410.3 399.87,-1304.25 456.67,-1262.2"/>
<polygon fill="black" stroke="black" points="458.87,-1264.92 464.92,-1256.23 454.77,-1259.25 458.87,-1264.92"/>
</g>
<!-- 4 8 0&#45;&gt;12 0 0 -->
<g id="edge4" class="edge">
<title>4 8 0&#45;&gt;12 0 0</title>
<path fill="none" stroke="black" d="M621.15,-1684.83C581.04,-1697.6 506.99,-1719.88 459.62,-1733.45"/>
<polygon fill="black" stroke="black" points="458.59,-1730.1 449.93,-1736.21 460.51,-1736.83 458.59,-1730.1"/>
</g>
<!-- 0 8 4 -->
<g id="node4" class="node">
<title>0 8 4</title>
<ellipse fill="none" stroke="black" cx="806" cy="-594" rx="34.39" ry="18"/>
<text text-anchor="middle" x="806" y="-590.3" font-family="Times,serif" font-size="14.00">0 8 4</text>
</g>
<!-- 4 8 0&#45;&gt;0 8 4 -->
<g id="edge3" class="edge">
<title>4 8 0&#45;&gt;0 8 4</title>
<path fill="none" stroke="black" d="M679.54,-1665.32C734.57,-1650.47 844,-1611.91 844,-1531 844,-1531 844,-1531 844,-1385 844,-1288.4 882,-1267.6 882,-1171 882,-1171 882,-1171 882,-809 882,-736.77 839.66,-659.89 817.91,-620.91"/>
<polygon fill="black" stroke="black" points="820.78,-618.88 812.86,-611.84 814.66,-622.28 820.78,-618.88"/>
</g>
<!-- 4 3 5 -->
<g id="node5" class="node">
<title>4 3 5</title>
<ellipse fill="none" stroke="black" cx="649" cy="-1602" rx="34.39" ry="18"/>
<text text-anchor="middle" x="649" y="-1598.3" font-family="Times,serif" font-size="14.00">4 3 5</text>
</g>
<!-- 4 8 0&#45;&gt;4 3 5 -->
<g id="edge5" class="edge">
<title>4 8 0&#45;&gt;4 3 5</title>
<path fill="none" stroke="black" d="M643.12,-1656.05C642.29,-1648.23 642.05,-1638.75 642.41,-1629.98"/>
<polygon fill="black" stroke="black" points="645.92,-1630.01 643.14,-1619.79 638.93,-1629.51 645.92,-1630.01"/>
</g>
<!-- 7 0 5&#45;&gt;12 0 0 -->
<g id="edge7" class="edge">
<title>7 0 5&#45;&gt;12 0 0</title>
<path fill="none" stroke="black" d="M471.02,-1258.17C425.8,-1297.13 302,-1406.3 302,-1529 302,-1603 302,-1603 302,-1603 302,-1656.89 353.24,-1700.37 387.16,-1724.43"/>
<polygon fill="black" stroke="black" points="385.57,-1727.59 395.79,-1730.41 389.56,-1721.84 385.57,-1727.59"/>
</g>
<!-- 0 7 5 -->
<g id="node6" class="node">
<title>0 7 5</title>
<ellipse fill="none" stroke="black" cx="542" cy="-666" rx="34.39" ry="18"/>
<text text-anchor="middle" x="542" y="-662.3" font-family="Times,serif" font-size="14.00">0 7 5</text>
</g>
<!-- 7 0 5&#45;&gt;0 7 5 -->
<g id="edge6" class="edge">
<title>7 0 5&#45;&gt;0 7 5</title>
<path fill="none" stroke="black" d="M484.51,-1223.88C483.77,-1172.37 496,-1014.31 496,-883 496,-883 496,-883 496,-809 496,-766.84 511.46,-719.85 524.83,-691.89"/>
<polygon fill="black" stroke="black" points="528.02,-693.33 529.44,-682.83 521.78,-690.16 528.02,-693.33"/>
</g>
<!-- 7 5 0 -->
<g id="node7" class="node">
<title>7 5 0</title>
<ellipse fill="none" stroke="black" cx="630" cy="-1170" rx="34.39" ry="18"/>
<text text-anchor="middle" x="630" y="-1166.3" font-family="Times,serif" font-size="14.00">7 5 0</text>
</g>
<!-- 7 0 5&#45;&gt;7 5 0 -->
<g id="edge8" class="edge">
<title>7 0 5&#45;&gt;7 5 0</title>
<path fill="none" stroke="black" d="M508.49,-1227.83C531.24,-1215.86 567.23,-1198.21 594.22,-1185.76"/>
<polygon fill="black" stroke="black" points="595.71,-1188.93 603.36,-1181.59 592.81,-1182.56 595.71,-1188.93"/>
</g>
<!-- 0 8 4&#45;&gt;4 8 0 -->
<g id="edge11" class="edge">
<title>0 8 4&#45;&gt;4 8 0</title>
<path fill="none" stroke="black" d="M821.54,-610.27C848.64,-644.26 900,-729.45 900,-809 900,-1171 900,-1171 900,-1171 900,-1267.6 862,-1288.4 862,-1385 862,-1531 862,-1531 862,-1531 862,-1611.53 753.6,-1650.11 691.35,-1665.11"/>
<polygon fill="black" stroke="black" points="690.37,-1661.74 681.41,-1667.4 691.94,-1668.56 690.37,-1661.74"/>
</g>
<!-- 0 8 4&#45;&gt;0 7 5 -->
<g id="edge10" class="edge">
<title>0 8 4&#45;&gt;0 7 5</title>
<path fill="none" stroke="black" d="M776.84,-603.98C729.62,-617.21 636.73,-641.85 582.93,-655.42"/>
<polygon fill="black" stroke="black" points="581.89,-652.08 573.04,-657.9 583.59,-658.87 581.89,-652.08"/>
</g>
<!-- 8 0 4 -->
<g id="node8" class="node">
<title>8 0 4</title>
<ellipse fill="none" stroke="black" cx="841" cy="-522" rx="34.39" ry="18"/>
<text text-anchor="middle" x="841" y="-518.3" font-family="Times,serif" font-size="14.00">8 0 4</text>
</g>
<!-- 0 8 4&#45;&gt;8 0 4 -->
<g id="edge9" class="edge">
<title>0 8 4&#45;&gt;8 0 4</title>
<path fill="none" stroke="black" d="M808.74,-575.7C812.11,-567.19 817.12,-556.8 822.28,-547.5"/>
<polygon fill="black" stroke="black" points="825.41,-549.07 827.43,-538.67 819.37,-545.55 825.41,-549.07"/>
</g>
<!-- 4 3 5&#45;&gt;4 8 0 -->
<g id="edge15" class="edge">
<title>4 3 5&#45;&gt;4 8 0</title>
<path fill="none" stroke="black" d="M654.86,-1619.79C655.7,-1627.59 655.94,-1637.07 655.6,-1645.85"/>
<polygon fill="black" stroke="black" points="652.09,-1645.83 654.88,-1656.05 659.07,-1646.33 652.09,-1645.83"/>
</g>
<!-- 4 3 5&#45;&gt;7 0 5 -->
<g id="edge13" class="edge">
<title>4 3 5&#45;&gt;7 0 5</title>
<path fill="none" stroke="black" d="M627.99,-1587.51C614.58,-1577.93 597.76,-1563.97 587,-1548 526.02,-1457.43 499.8,-1326.83 490.86,-1270.53"/>
<polygon fill="black" stroke="black" points="494.27,-1269.65 489.3,-1260.3 487.35,-1270.71 494.27,-1269.65"/>
</g>
<!-- 4 3 5&#45;&gt;0 7 5 -->
<g id="edge12" class="edge">
<title>4 3 5&#45;&gt;0 7 5</title>
<path fill="none" stroke="black" d="M658.67,-1584.62C698.02,-1517.38 844,-1261.78 844,-1171 844,-1171 844,-1171 844,-809 844,-696.51 670.3,-672.97 586.36,-668.16"/>
<polygon fill="black" stroke="black" points="586.51,-664.67 576.35,-667.65 586.16,-671.66 586.51,-664.67"/>
</g>
<!-- 9 3 0 -->
<g id="node9" class="node">
<title>9 3 0</title>
<ellipse fill="none" stroke="black" cx="630" cy="-1530" rx="34.39" ry="18"/>
<text text-anchor="middle" x="630" y="-1526.3" font-family="Times,serif" font-size="14.00">9 3 0</text>
</g>
<!-- 4 3 5&#45;&gt;9 3 0 -->
<g id="edge14" class="edge">
<title>4 3 5&#45;&gt;9 3 0</title>
<path fill="none" stroke="black" d="M638.79,-1584.76C635.76,-1576.87 632.86,-1567.16 630.78,-1558.18"/>
<polygon fill="black" stroke="black" points="634.16,-1557.23 628.75,-1548.12 627.3,-1558.62 634.16,-1557.23"/>
</g>
<!-- 0 7 5&#45;&gt;7 0 5 -->
<g id="edge16" class="edge">
<title>0 7 5&#45;&gt;7 0 5</title>
<path fill="none" stroke="black" d="M540.28,-684.11C532.7,-710.42 514,-762.63 514,-809 514,-883 514,-883 514,-883 514,-1006.61 503.16,-1153.93 494.1,-1213.75"/>
<polygon fill="black" stroke="black" points="490.61,-1213.44 492.43,-1223.88 497.51,-1214.58 490.61,-1213.44"/>
</g>
<!-- 0 7 5&#45;&gt;0 8 4 -->
<g id="edge18" class="edge">
<title>0 7 5&#45;&gt;0 8 4</title>
<path fill="none" stroke="black" d="M571.02,-656.06C618.19,-642.84 711.25,-618.15 765.1,-604.57"/>
<polygon fill="black" stroke="black" points="766.15,-607.91 775,-602.09 764.44,-601.12 766.15,-607.91"/>
</g>
<!-- 5 7 0 -->
<g id="node10" class="node">
<title>5 7 0</title>
<ellipse fill="none" stroke="black" cx="393" cy="-738" rx="34.39" ry="18"/>
<text text-anchor="middle" x="393" y="-734.3" font-family="Times,serif" font-size="14.00">5 7 0</text>
</g>
<!-- 0 7 5&#45;&gt;5 7 0 -->
<g id="edge17" class="edge">
<title>0 7 5&#45;&gt;5 7 0</title>
<path fill="none" stroke="black" d="M519.73,-679.99C495.71,-692.1 457.41,-710.12 429.12,-722.65"/>
<polygon fill="black" stroke="black" points="427.7,-719.45 419.94,-726.67 430.5,-725.86 427.7,-719.45"/>
</g>
<!-- 7 5 0&#45;&gt;12 0 0 -->
<g id="edge21" class="edge">
<title>7 5 0&#45;&gt;12 0 0</title>
<path fill="none" stroke="black" d="M659.5,-1179.53C743.17,-1205.73 976,-1293.34 976,-1457 976,-1603 976,-1603 976,-1603 976,-1707.6 604.3,-1736.01 466.55,-1742.95"/>
<polygon fill="black" stroke="black" points="466.09,-1739.47 456.27,-1743.45 466.43,-1746.46 466.09,-1739.47"/>
</g>
<!-- 7 5 0&#45;&gt;4 8 0 -->
<g id="edge19" class="edge">
<title>7 5 0&#45;&gt;4 8 0</title>
<path fill="none" stroke="black" d="M654.99,-1182.54C694.76,-1202.82 768,-1248.89 768,-1313 768,-1531 768,-1531 768,-1531 768,-1585.86 715.19,-1630.64 679.93,-1654.43"/>
<polygon fill="black" stroke="black" points="677.84,-1651.62 671.38,-1660.02 681.67,-1657.48 677.84,-1651.62"/>
</g>
<!-- 7 5 0&#45;&gt;7 0 5 -->
<g id="edge22" class="edge">
<title>7 5 0&#45;&gt;7 0 5</title>
<path fill="none" stroke="black" d="M608.6,-1184.12C585.88,-1196.08 549.89,-1213.74 522.87,-1226.2"/>
<polygon fill="black" stroke="black" points="521.37,-1223.03 513.73,-1230.37 524.28,-1229.4 521.37,-1223.03"/>
</g>
<!-- 2 5 5 -->
<g id="node11" class="node">
<title>2 5 5</title>
<ellipse fill="none" stroke="black" cx="630" cy="-1098" rx="34.39" ry="18"/>
<text text-anchor="middle" x="630" y="-1094.3" font-family="Times,serif" font-size="14.00">2 5 5</text>
</g>
<!-- 7 5 0&#45;&gt;2 5 5 -->
<g id="edge20" class="edge">
<title>7 5 0&#45;&gt;2 5 5</title>
<path fill="none" stroke="black" d="M624.12,-1152.05C623.29,-1144.23 623.05,-1134.75 623.41,-1125.98"/>
<polygon fill="black" stroke="black" points="626.92,-1126.01 624.14,-1115.79 619.93,-1125.51 626.92,-1126.01"/>
</g>
<!-- 8 0 4&#45;&gt;12 0 0 -->
<g id="edge25" class="edge">
<title>8 0 4&#45;&gt;12 0 0</title>
<path fill="none" stroke="black" d="M858.22,-537.79C901.98,-577.11 1014,-689.46 1014,-809 1014,-1603 1014,-1603 1014,-1603 1014,-1663.84 965.86,-1667.9 910,-1692 831.07,-1726.06 575.58,-1739.21 466.32,-1743.36"/>
<polygon fill="black" stroke="black" points="466.07,-1739.87 456.21,-1743.74 466.33,-1746.87 466.07,-1739.87"/>
</g>
<!-- 8 0 4&#45;&gt;7 0 5 -->
<g id="edge24" class="edge">
<title>8 0 4&#45;&gt;7 0 5</title>
<path fill="none" stroke="black" d="M845.34,-539.88C849.32,-557.89 853.9,-587.19 849,-612 830.65,-704.87 768,-714.33 768,-809 768,-1099 768,-1099 768,-1099 768,-1139.97 773.83,-1159.91 744,-1188 713.78,-1216.46 596.33,-1231.26 531.17,-1237.42"/>
<polygon fill="black" stroke="black" points="530.82,-1233.94 521.19,-1238.34 531.46,-1240.91 530.82,-1233.94"/>
</g>
<!-- 8 0 4&#45;&gt;0 8 4 -->
<g id="edge23" class="edge">
<title>8 0 4&#45;&gt;0 8 4</title>
<path fill="none" stroke="black" d="M838.27,-540.29C834.92,-548.74 829.95,-559.06 824.82,-568.32"/>
<polygon fill="black" stroke="black" points="821.71,-566.71 819.7,-577.12 827.76,-570.23 821.71,-566.71"/>
</g>
<!-- 8 4 0 -->
<g id="node12" class="node">
<title>8 4 0</title>
<ellipse fill="none" stroke="black" cx="841" cy="-450" rx="34.39" ry="18"/>
<text text-anchor="middle" x="841" y="-446.3" font-family="Times,serif" font-size="14.00">8 4 0</text>
</g>
<!-- 8 0 4&#45;&gt;8 4 0 -->
<g id="edge26" class="edge">
<title>8 0 4&#45;&gt;8 4 0</title>
<path fill="none" stroke="black" d="M835.12,-504.05C834.29,-496.23 834.05,-486.75 834.41,-477.98"/>
<polygon fill="black" stroke="black" points="837.92,-478.01 835.14,-467.79 830.93,-477.51 837.92,-478.01"/>
</g>
<!-- 9 3 0&#45;&gt;12 0 0 -->
<g id="edge29" class="edge">
<title>9 3 0&#45;&gt;12 0 0</title>
<path fill="none" stroke="black" d="M614.82,-1546.18C577.79,-1583.21 482.7,-1678.3 438.82,-1722.18"/>
<polygon fill="black" stroke="black" points="436.33,-1719.72 431.74,-1729.26 441.28,-1724.67 436.33,-1719.72"/>
</g>
<!-- 9 3 0&#45;&gt;4 8 0 -->
<g id="edge27" class="edge">
<title>9 3 0&#45;&gt;4 8 0</title>
<path fill="none" stroke="black" d="M619.71,-1547.31C609.7,-1565.33 597.17,-1595.11 606,-1620 610,-1631.29 617.55,-1641.92 625.21,-1650.66"/>
<polygon fill="black" stroke="black" points="622.8,-1653.21 632.19,-1658.12 627.91,-1648.42 622.8,-1653.21"/>
</g>
<!-- 9 3 0&#45;&gt;4 3 5 -->
<g id="edge28" class="edge">
<title>9 3 0&#45;&gt;4 3 5</title>
<path fill="none" stroke="black" d="M640.36,-1547.62C643.33,-1555.44 646.17,-1564.97 648.22,-1573.8"/>
<polygon fill="black" stroke="black" points="644.8,-1574.59 650.22,-1583.7 651.67,-1573.2 644.8,-1574.59"/>
</g>
<!-- 9 0 3 -->
<g id="node13" class="node">
<title>9 0 3</title>
<ellipse fill="none" stroke="black" cx="630" cy="-1458" rx="34.39" ry="18"/>
<text text-anchor="middle" x="630" y="-1454.3" font-family="Times,serif" font-size="14.00">9 0 3</text>
</g>
<!-- 9 3 0&#45;&gt;9 0 3 -->
<g id="edge30" class="edge">
<title>9 3 0&#45;&gt;9 0 3</title>
<path fill="none" stroke="black" d="M624.12,-1512.05C623.29,-1504.23 623.05,-1494.75 623.41,-1485.98"/>
<polygon fill="black" stroke="black" points="626.92,-1486.01 624.14,-1475.79 619.93,-1485.51 626.92,-1486.01"/>
</g>
<!-- 5 7 0&#45;&gt;12 0 0 -->
<g id="edge33" class="edge">
<title>5 7 0&#45;&gt;12 0 0</title>
<path fill="none" stroke="black" d="M358.47,-738.98C276.31,-740.94 76,-758.28 76,-881 76,-1603 76,-1603 76,-1603 76,-1726.93 270.73,-1744.61 365.45,-1745.88"/>
<polygon fill="black" stroke="black" points="365.64,-1749.38 375.66,-1745.96 365.69,-1742.38 365.64,-1749.38"/>
</g>
<!-- 5 7 0&#45;&gt;4 8 0 -->
<g id="edge31" class="edge">
<title>5 7 0&#45;&gt;4 8 0</title>
<path fill="none" stroke="black" d="M369.57,-751.57C319.79,-780.17 208,-855.27 208,-953 208,-1099 208,-1099 208,-1099 208,-1211.31 370.7,-1459.62 440,-1548 466.79,-1582.16 469.97,-1595.78 506,-1620 537.39,-1641.1 578.27,-1655.16 608.28,-1663.46"/>
<polygon fill="black" stroke="black" points="607.45,-1666.86 618.01,-1666.06 609.25,-1660.1 607.45,-1666.86"/>
</g>
<!-- 5 7 0&#45;&gt;0 7 5 -->
<g id="edge32" class="edge">
<title>5 7 0&#45;&gt;0 7 5</title>
<path fill="none" stroke="black" d="M415.29,-724C439.32,-711.88 477.63,-693.86 505.92,-681.34"/>
<polygon fill="black" stroke="black" points="507.34,-684.53 515.09,-677.31 504.53,-678.12 507.34,-684.53"/>
</g>
<!-- 5 2 5 -->
<g id="node14" class="node">
<title>5 2 5</title>
<ellipse fill="none" stroke="black" cx="393" cy="-810" rx="34.39" ry="18"/>
<text text-anchor="middle" x="393" y="-806.3" font-family="Times,serif" font-size="14.00">5 2 5</text>
</g>
<!-- 5 7 0&#45;&gt;5 2 5 -->
<g id="edge34" class="edge">
<title>5 7 0&#45;&gt;5 2 5</title>
<path fill="none" stroke="black" d="M398.86,-755.79C399.7,-763.59 399.94,-773.07 399.6,-781.85"/>
<polygon fill="black" stroke="black" points="396.09,-781.83 398.88,-792.05 403.07,-782.33 396.09,-781.83"/>
</g>
<!-- 2 5 5&#45;&gt;7 0 5 -->
<g id="edge36" class="edge">
<title>2 5 5&#45;&gt;7 0 5</title>
<path fill="none" stroke="black" d="M614.37,-1114.52C589.03,-1139.69 538.85,-1189.51 509.61,-1218.55"/>
<polygon fill="black" stroke="black" points="506.93,-1216.27 502.3,-1225.8 511.87,-1221.24 506.93,-1216.27"/>
</g>
<!-- 2 5 5&#45;&gt;0 7 5 -->
<g id="edge35" class="edge">
<title>2 5 5&#45;&gt;0 7 5</title>
<path fill="none" stroke="black" d="M634.74,-1080.11C641.74,-1053.66 654,-1000.75 654,-955 654,-955 654,-955 654,-809 654,-755.68 604.71,-710.61 571.53,-686.31"/>
<polygon fill="black" stroke="black" points="573.25,-683.24 563.07,-680.31 569.19,-688.95 573.25,-683.24"/>
</g>
<!-- 2 5 5&#45;&gt;7 5 0 -->
<g id="edge37" class="edge">
<title>2 5 5&#45;&gt;7 5 0</title>
<path fill="none" stroke="black" d="M635.86,-1115.79C636.7,-1123.59 636.94,-1133.07 636.6,-1141.85"/>
<polygon fill="black" stroke="black" points="633.09,-1141.83 635.88,-1152.05 640.07,-1142.33 633.09,-1141.83"/>
</g>
<!-- 2 8 2 -->
<g id="node15" class="node">
<title>2 8 2</title>
<ellipse fill="none" stroke="black" cx="584" cy="-1026" rx="34.39" ry="18"/>
<text text-anchor="middle" x="584" y="-1022.3" font-family="Times,serif" font-size="14.00">2 8 2</text>
</g>
<!-- 2 5 5&#45;&gt;2 8 2 -->
<g id="edge38" class="edge">
<title>2 5 5&#45;&gt;2 8 2</title>
<path fill="none" stroke="black" d="M614.34,-1081.81C607.79,-1073.4 600.48,-1062.72 594.55,-1053.02"/>
<polygon fill="black" stroke="black" points="597.42,-1051 589.36,-1044.13 591.38,-1054.53 597.42,-1051"/>
</g>
<!-- 8 4 0&#45;&gt;12 0 0 -->
<g id="edge41" class="edge">
<title>8 4 0&#45;&gt;12 0 0</title>
<path fill="none" stroke="black" d="M864.88,-463.44C927.2,-497.84 1090,-600.72 1090,-737 1090,-1603 1090,-1603 1090,-1603 1090,-1730.34 623.49,-1744.08 466.7,-1745.11"/>
<polygon fill="black" stroke="black" points="466.38,-1741.61 456.39,-1745.16 466.41,-1748.61 466.38,-1741.61"/>
</g>
<!-- 8 4 0&#45;&gt;4 8 0 -->
<g id="edge39" class="edge">
<title>8 4 0&#45;&gt;4 8 0</title>
<path fill="none" stroke="black" d="M859.7,-465.34C887.89,-488.74 938,-538.07 938,-593 938,-1243 938,-1243 938,-1243 938,-1339.6 900,-1360.4 900,-1457 900,-1531 900,-1531 900,-1531 900,-1625.13 764.63,-1657.59 692.72,-1668.19"/>
<polygon fill="black" stroke="black" points="692.01,-1664.75 682.59,-1669.6 692.98,-1671.69 692.01,-1664.75"/>
</g>
<!-- 8 4 0&#45;&gt;8 0 4 -->
<g id="edge42" class="edge">
<title>8 4 0&#45;&gt;8 0 4</title>
<path fill="none" stroke="black" d="M846.86,-467.79C847.7,-475.59 847.94,-485.07 847.6,-493.85"/>
<polygon fill="black" stroke="black" points="844.09,-493.83 846.88,-504.05 851.07,-494.33 844.09,-493.83"/>
</g>
<!-- 3 4 5 -->
<g id="node16" class="node">
<title>3 4 5</title>
<ellipse fill="none" stroke="black" cx="742" cy="-378" rx="34.39" ry="18"/>
<text text-anchor="middle" x="742" y="-374.3" font-family="Times,serif" font-size="14.00">3 4 5</text>
</g>
<!-- 8 4 0&#45;&gt;3 4 5 -->
<g id="edge40" class="edge">
<title>8 4 0&#45;&gt;3 4 5</title>
<path fill="none" stroke="black" d="M817.98,-436.49C802.3,-426.46 781.78,-412.18 765.93,-400.36"/>
<polygon fill="black" stroke="black" points="767.75,-397.34 757.67,-394.09 763.52,-402.92 767.75,-397.34"/>
</g>
<!-- 9 0 3&#45;&gt;12 0 0 -->
<g id="edge45" class="edge">
<title>9 0 3&#45;&gt;12 0 0</title>
<path fill="none" stroke="black" d="M615.5,-1474.61C585.77,-1507 516.54,-1584.48 467,-1656 452.84,-1676.44 438.95,-1701.07 429.25,-1719.23"/>
<polygon fill="black" stroke="black" points="426.15,-1717.6 424.58,-1728.08 432.34,-1720.87 426.15,-1717.6"/>
</g>
<!-- 9 0 3&#45;&gt;7 0 5 -->
<g id="edge44" class="edge">
<title>9 0 3&#45;&gt;7 0 5</title>
<path fill="none" stroke="black" d="M616.28,-1441.17C607.56,-1430.85 596.21,-1416.93 587,-1404 554,-1357.65 519.95,-1300.45 501.33,-1268.21"/>
<polygon fill="black" stroke="black" points="504.3,-1266.36 496.28,-1259.43 498.23,-1269.84 504.3,-1266.36"/>
</g>
<!-- 9 0 3&#45;&gt;9 3 0 -->
<g id="edge46" class="edge">
<title>9 0 3&#45;&gt;9 3 0</title>
<path fill="none" stroke="black" d="M635.86,-1475.79C636.7,-1483.59 636.94,-1493.07 636.6,-1501.85"/>
<polygon fill="black" stroke="black" points="633.09,-1501.83 635.88,-1512.05 640.07,-1502.33 633.09,-1501.83"/>
</g>
<!-- 1 8 3 -->
<g id="node17" class="node">
<title>1 8 3</title>
<ellipse fill="none" stroke="black" cx="630" cy="-1386" rx="34.39" ry="18"/>
<text text-anchor="middle" x="630" y="-1382.3" font-family="Times,serif" font-size="14.00">1 8 3</text>
</g>
<!-- 9 0 3&#45;&gt;1 8 3 -->
<g id="edge43" class="edge">
<title>9 0 3&#45;&gt;1 8 3</title>
<path fill="none" stroke="black" d="M624.12,-1440.05C623.29,-1432.23 623.05,-1422.75 623.41,-1413.98"/>
<polygon fill="black" stroke="black" points="626.92,-1414.01 624.14,-1403.79 619.93,-1413.51 626.92,-1414.01"/>
</g>
<!-- 5 2 5&#45;&gt;7 0 5 -->
<g id="edge48" class="edge">
<title>5 2 5&#45;&gt;7 0 5</title>
<path fill="none" stroke="black" d="M410.62,-825.79C420.85,-835.5 432.89,-849.12 439,-864 493.83,-997.48 421.8,-1048.85 460,-1188 462.58,-1197.41 466.93,-1207.09 471.4,-1215.56"/>
<polygon fill="black" stroke="black" points="468.47,-1217.5 476.4,-1224.53 474.59,-1214.09 468.47,-1217.5"/>
</g>
<!-- 5 2 5&#45;&gt;0 7 5 -->
<g id="edge47" class="edge">
<title>5 2 5&#45;&gt;0 7 5</title>
<path fill="none" stroke="black" d="M407.84,-793.59C425.28,-775.61 455.25,-745.14 482,-720 493.33,-709.35 506.21,-697.89 517.13,-688.36"/>
<polygon fill="black" stroke="black" points="519.42,-691 524.68,-681.8 514.83,-685.72 519.42,-691"/>
</g>
<!-- 5 2 5&#45;&gt;5 7 0 -->
<g id="edge50" class="edge">
<title>5 2 5&#45;&gt;5 7 0</title>
<path fill="none" stroke="black" d="M387.12,-792.05C386.29,-784.23 386.05,-774.75 386.41,-765.98"/>
<polygon fill="black" stroke="black" points="389.92,-766.01 387.14,-755.79 382.93,-765.51 389.92,-766.01"/>
</g>
<!-- 10 2 0 -->
<g id="node18" class="node">
<title>10 2 0</title>
<ellipse fill="none" stroke="black" cx="390" cy="-882" rx="40.09" ry="18"/>
<text text-anchor="middle" x="390" y="-878.3" font-family="Times,serif" font-size="14.00">10 2 0</text>
</g>
<!-- 5 2 5&#45;&gt;10 2 0 -->
<g id="edge49" class="edge">
<title>5 2 5&#45;&gt;10 2 0</title>
<path fill="none" stroke="black" d="M398.17,-828.28C398.64,-836.03 398.47,-845.36 397.75,-854.01"/>
<polygon fill="black" stroke="black" points="394.26,-853.72 396.6,-864.05 401.21,-854.51 394.26,-853.72"/>
</g>
<!-- 2 8 2&#45;&gt;4 8 0 -->
<g id="edge54" class="edge">
<title>2 8 2&#45;&gt;4 8 0</title>
<path fill="none" stroke="black" d="M580.84,-1043.98C576.18,-1070.55 568,-1123.6 568,-1169 568,-1243 568,-1243 568,-1243 568,-1339.6 530,-1360.4 530,-1457 530,-1531 530,-1531 530,-1531 530,-1585.86 582.81,-1630.64 618.07,-1654.43"/>
<polygon fill="black" stroke="black" points="616.33,-1657.48 626.62,-1660.02 620.16,-1651.62 616.33,-1657.48"/>
</g>
<!-- 2 8 2&#45;&gt;0 8 4 -->
<g id="edge51" class="edge">
<title>2 8 2&#45;&gt;0 8 4</title>
<path fill="none" stroke="black" d="M590.32,-1008.23C599.65,-981.94 616,-929.25 616,-883 616,-883 616,-883 616,-809 616,-715.3 719.11,-643.52 773.42,-612.21"/>
<polygon fill="black" stroke="black" points="775.33,-615.15 782.32,-607.19 771.89,-609.05 775.33,-615.15"/>
</g>
<!-- 2 8 2&#45;&gt;2 5 5 -->
<g id="edge53" class="edge">
<title>2 8 2&#45;&gt;2 5 5</title>
<path fill="none" stroke="black" d="M599.79,-1042.36C606.35,-1050.8 613.66,-1061.5 619.57,-1071.18"/>
<polygon fill="black" stroke="black" points="616.68,-1073.18 624.74,-1080.05 622.73,-1069.65 616.68,-1073.18"/>
</g>
<!-- 10 0 2 -->
<g id="node19" class="node">
<title>10 0 2</title>
<ellipse fill="none" stroke="black" cx="390" cy="-954" rx="40.09" ry="18"/>
<text text-anchor="middle" x="390" y="-950.3" font-family="Times,serif" font-size="14.00">10 0 2</text>
</g>
<!-- 2 8 2&#45;&gt;10 0 2 -->
<g id="edge52" class="edge">
<title>2 8 2&#45;&gt;10 0 2</title>
<path fill="none" stroke="black" d="M554.76,-1016.13C520.77,-1004.72 464.9,-984.69 427.71,-970.68"/>
<polygon fill="black" stroke="black" points="428.81,-967.35 418.22,-967.07 426.32,-973.89 428.81,-967.35"/>
</g>
<!-- 3 4 5&#45;&gt;7 0 5 -->
<g id="edge56" class="edge">
<title>3 4 5&#45;&gt;7 0 5</title>
<path fill="none" stroke="black" d="M739.63,-396.01C736.13,-422.62 730,-475.72 730,-521 730,-1099 730,-1099 730,-1099 730,-1145.97 710.69,-1159.97 673,-1188 631.11,-1219.15 571.5,-1232.01 531.14,-1237.31"/>
<polygon fill="black" stroke="black" points="530.57,-1233.85 521.07,-1238.53 531.42,-1240.8 530.57,-1233.85"/>
</g>
<!-- 3 4 5&#45;&gt;0 7 5 -->
<g id="edge55" class="edge">
<title>3 4 5&#45;&gt;0 7 5</title>
<path fill="none" stroke="black" d="M730.55,-395.37C697.06,-443.27 599.11,-583.33 559.21,-640.39"/>
<polygon fill="black" stroke="black" points="556.19,-638.6 553.33,-648.8 561.92,-642.61 556.19,-638.6"/>
</g>
<!-- 3 4 5&#45;&gt;8 4 0 -->
<g id="edge57" class="edge">
<title>3 4 5&#45;&gt;8 4 0</title>
<path fill="none" stroke="black" d="M765.13,-391.59C780.76,-401.58 801.16,-415.78 816.95,-427.56"/>
<polygon fill="black" stroke="black" points="815.11,-430.56 825.2,-433.81 819.34,-424.98 815.11,-430.56"/>
</g>
<!-- 3 8 1 -->
<g id="node20" class="node">
<title>3 8 1</title>
<ellipse fill="none" stroke="black" cx="711" cy="-306" rx="34.39" ry="18"/>
<text text-anchor="middle" x="711" y="-302.3" font-family="Times,serif" font-size="14.00">3 8 1</text>
</g>
<!-- 3 4 5&#45;&gt;3 8 1 -->
<g id="edge58" class="edge">
<title>3 4 5&#45;&gt;3 8 1</title>
<path fill="none" stroke="black" d="M729.2,-361.12C724.71,-353.06 720,-343.05 716.3,-333.84"/>
<polygon fill="black" stroke="black" points="719.52,-332.44 712.74,-324.29 712.96,-334.88 719.52,-332.44"/>
</g>
<!-- 1 8 3&#45;&gt;4 8 0 -->
<g id="edge62" class="edge">
<title>1 8 3&#45;&gt;4 8 0</title>
<path fill="none" stroke="black" d="M646.14,-1402.15C655.58,-1411.99 666.82,-1425.63 673,-1440 698.52,-1499.3 687.77,-1519.58 692,-1584 693.05,-1599.97 697.35,-1604.92 692,-1620 688,-1631.29 680.45,-1641.92 672.79,-1650.66"/>
<polygon fill="black" stroke="black" points="670.09,-1648.42 665.81,-1658.12 675.2,-1653.21 670.09,-1648.42"/>
</g>
<!-- 1 8 3&#45;&gt;0 8 4 -->
<g id="edge59" class="edge">
<title>1 8 3&#45;&gt;0 8 4</title>
<path fill="none" stroke="black" d="M643.57,-1369.07C652.24,-1358.71 663.58,-1344.78 673,-1332 743.71,-1235.99 806,-1218.24 806,-1099 806,-1099 806,-1099 806,-737 806,-697 806,-650.65 806,-622.08"/>
<polygon fill="black" stroke="black" points="809.5,-622.05 806,-612.05 802.5,-622.05 809.5,-622.05"/>
</g>
<!-- 1 8 3&#45;&gt;9 0 3 -->
<g id="edge60" class="edge">
<title>1 8 3&#45;&gt;9 0 3</title>
<path fill="none" stroke="black" d="M635.86,-1403.79C636.7,-1411.59 636.94,-1421.07 636.6,-1429.85"/>
<polygon fill="black" stroke="black" points="633.09,-1429.83 635.88,-1440.05 640.07,-1430.33 633.09,-1429.83"/>
</g>
<!-- 1 6 5 -->
<g id="node21" class="node">
<title>1 6 5</title>
<ellipse fill="none" stroke="red" cx="630" cy="-1314" rx="34.39" ry="18"/>
<text text-anchor="middle" x="630" y="-1310.3" font-family="Times,serif" font-size="14.00">1 6 5</text>
</g>
<!-- 1 8 3&#45;&gt;1 6 5 -->
<g id="edge61" class="edge">
<title>1 8 3&#45;&gt;1 6 5</title>
<path fill="none" stroke="black" d="M624.12,-1368.05C623.29,-1360.23 623.05,-1350.75 623.41,-1341.98"/>
<polygon fill="black" stroke="black" points="626.92,-1342.01 624.14,-1331.79 619.93,-1341.51 626.92,-1342.01"/>
</g>
<!-- 10 2 0&#45;&gt;12 0 0 -->
<g id="edge65" class="edge">
<title>10 2 0&#45;&gt;12 0 0</title>
<path fill="none" stroke="black" d="M353.18,-889.33C290.55,-902.44 170,-938.85 170,-1025 170,-1603 170,-1603 170,-1603 170,-1649.73 188.53,-1664.07 226,-1692 267.13,-1722.66 325.19,-1735.59 366.27,-1741.03"/>
<polygon fill="black" stroke="black" points="365.98,-1744.53 376.33,-1742.26 366.83,-1737.58 365.98,-1744.53"/>
</g>
<!-- 10 2 0&#45;&gt;4 8 0 -->
<g id="edge63" class="edge">
<title>10 2 0&#45;&gt;4 8 0</title>
<path fill="none" stroke="black" d="M371.21,-898.21C360.6,-907.89 348.07,-921.32 341,-936 275.05,-1072.91 289.49,-1115.5 308,-1188 362.13,-1399.98 386.8,-1467.84 544,-1620 562.83,-1638.23 589.17,-1651.5 610.76,-1660.2"/>
<polygon fill="black" stroke="black" points="609.71,-1663.55 620.3,-1663.88 612.23,-1657.02 609.71,-1663.55"/>
</g>
<!-- 10 2 0&#45;&gt;5 2 5 -->
<g id="edge64" class="edge">
<title>10 2 0&#45;&gt;5 2 5</title>
<path fill="none" stroke="black" d="M384.85,-864.05C384.35,-856.23 384.52,-846.75 385.25,-837.98"/>
<polygon fill="black" stroke="black" points="388.76,-838.12 386.42,-827.79 381.81,-837.33 388.76,-838.12"/>
</g>
<!-- 10 2 0&#45;&gt;10 0 2 -->
<g id="edge66" class="edge">
<title>10 2 0&#45;&gt;10 0 2</title>
<path fill="none" stroke="black" d="M395.91,-900.28C396.71,-908.03 396.94,-917.36 396.59,-926.01"/>
<polygon fill="black" stroke="black" points="393.09,-925.83 395.88,-936.05 400.08,-926.33 393.09,-925.83"/>
</g>
<!-- 10 0 2&#45;&gt;12 0 0 -->
<g id="edge69" class="edge">
<title>10 0 2&#45;&gt;12 0 0</title>
<path fill="none" stroke="black" d="M374.8,-971C331.05,-1018.78 208,-1166.23 208,-1313 208,-1603 208,-1603 208,-1603 208,-1680.87 308.66,-1719.11 369.93,-1735.18"/>
<polygon fill="black" stroke="black" points="369.22,-1738.61 379.77,-1737.66 370.93,-1731.83 369.22,-1738.61"/>
</g>
<!-- 10 0 2&#45;&gt;7 0 5 -->
<g id="edge68" class="edge">
<title>10 0 2&#45;&gt;7 0 5</title>
<path fill="none" stroke="black" d="M388.28,-972.13C385.04,-1012.59 381.62,-1116.08 422,-1188 429.88,-1202.03 443.06,-1213.82 455.51,-1222.7"/>
<polygon fill="black" stroke="black" points="453.68,-1225.68 463.93,-1228.36 457.59,-1219.88 453.68,-1225.68"/>
</g>
<!-- 10 0 2&#45;&gt;2 8 2 -->
<g id="edge67" class="edge">
<title>10 0 2&#45;&gt;2 8 2</title>
<path fill="none" stroke="black" d="M422.34,-964.91C457.32,-976.73 512.65,-996.61 548.72,-1010.24"/>
<polygon fill="black" stroke="black" points="547.76,-1013.62 558.35,-1013.91 550.25,-1007.08 547.76,-1013.62"/>
</g>
<!-- 10 0 2&#45;&gt;10 2 0 -->
<g id="edge70" class="edge">
<title>10 0 2&#45;&gt;10 2 0</title>
<path fill="none" stroke="black" d="M384.12,-936.05C383.3,-928.35 383.06,-919.03 383.39,-910.36"/>
<polygon fill="black" stroke="black" points="386.89,-910.49 384.09,-900.28 379.91,-910.01 386.89,-910.49"/>
</g>
<!-- 3 8 1&#45;&gt;4 8 0 -->
<g id="edge74" class="edge">
<title>3 8 1&#45;&gt;4 8 0</title>
<path fill="none" stroke="black" d="M742.77,-313.13C827.43,-330.37 1052,-382.39 1052,-449 1052,-523 1052,-523 1052,-523 1052,-654.52 976,-677.48 976,-809 976,-1243 976,-1243 976,-1243 976,-1339.6 938,-1360.4 938,-1457 938,-1531 938,-1531 938,-1531 938,-1638.54 774.82,-1664.64 693.7,-1670.97"/>
<polygon fill="black" stroke="black" points="693.01,-1667.51 683.29,-1671.71 693.51,-1674.5 693.01,-1667.51"/>
</g>
<!-- 3 8 1&#45;&gt;0 8 4 -->
<g id="edge71" class="edge">
<title>3 8 1&#45;&gt;0 8 4</title>
<path fill="none" stroke="black" d="M704.92,-323.95C699.32,-342.02 692.74,-371.37 699,-396 716.14,-463.46 761.55,-532.81 787.37,-568.49"/>
<polygon fill="black" stroke="black" points="784.74,-570.82 793.48,-576.81 790.38,-566.68 784.74,-570.82"/>
</g>
<!-- 3 8 1&#45;&gt;3 4 5 -->
<g id="edge73" class="edge">
<title>3 8 1&#45;&gt;3 4 5</title>
<path fill="none" stroke="black" d="M723.94,-323.14C728.41,-331.18 733.06,-341.1 736.73,-350.23"/>
<polygon fill="black" stroke="black" points="733.48,-351.55 740.25,-359.7 740.04,-349.1 733.48,-351.55"/>
</g>
<!-- 11 0 1 -->
<g id="node22" class="node">
<title>11 0 1</title>
<ellipse fill="none" stroke="black" cx="551" cy="-234" rx="40.09" ry="18"/>
<text text-anchor="middle" x="551" y="-230.3" font-family="Times,serif" font-size="14.00">11 0 1</text>
</g>
<!-- 3 8 1&#45;&gt;11 0 1 -->
<g id="edge72" class="edge">
<title>3 8 1&#45;&gt;11 0 1</title>
<path fill="none" stroke="black" d="M683.54,-295.12C656.32,-284.11 614.81,-266.11 585.43,-252.67"/>
<polygon fill="black" stroke="black" points="586.51,-249.31 575.97,-248.3 583.58,-255.67 586.51,-249.31"/>
</g>
<!-- 1 6 5&#45;&gt;7 0 5 -->
<g id="edge76" class="edge">
<title>1 6 5&#45;&gt;7 0 5</title>
<path fill="none" stroke="black" d="M605.74,-1301.13C582.32,-1289.66 546.66,-1272.21 520.53,-1259.41"/>
<polygon fill="black" stroke="black" points="521.9,-1256.19 511.38,-1254.93 518.82,-1262.47 521.9,-1256.19"/>
</g>
<!-- 1 6 5&#45;&gt;0 7 5 -->
<g id="edge75" class="edge">
<title>1 6 5&#45;&gt;0 7 5</title>
<path fill="none" stroke="black" d="M642.25,-1296.95C660.32,-1271.64 692,-1220.23 692,-1171 692,-1171 692,-1171 692,-809 692,-746.36 622.16,-703.09 577.79,-681.92"/>
<polygon fill="black" stroke="black" points="579.02,-678.63 568.47,-677.62 576.08,-684.99 579.02,-678.63"/>
</g>
<!-- 1 6 5&#45;&gt;1 8 3 -->
<g id="edge78" class="edge">
<title>1 6 5&#45;&gt;1 8 3</title>
<path fill="none" stroke="black" d="M635.86,-1331.79C636.7,-1339.59 636.94,-1349.07 636.6,-1357.85"/>
<polygon fill="black" stroke="black" points="633.09,-1357.83 635.88,-1368.05 640.07,-1358.33 633.09,-1357.83"/>
</g>
<!-- 6 6 0 -->
<g id="node23" class="node">
<title>6 6 0</title>
<ellipse fill="none" stroke="red" cx="203" cy="-18" rx="34.39" ry="18"/>
<text text-anchor="middle" x="203" y="-14.3" font-family="Times,serif" font-size="14.00">6 6 0</text>
</g>
<!-- 1 6 5&#45;&gt;6 6 0 -->
<g id="edge77" class="edge">
<title>1 6 5&#45;&gt;6 6 0</title>
<path fill="none" stroke="black" d="M597.92,-1307.44C485.04,-1285.85 114,-1203.62 114,-1099 114,-1099 114,-1099 114,-161 114,-112.84 149.36,-65.95 175.71,-39.93"/>
<polygon fill="black" stroke="black" points="178.34,-42.26 183.21,-32.85 173.53,-37.17 178.34,-42.26"/>
</g>
<!-- 11 0 1&#45;&gt;12 0 0 -->
<g id="edge81" class="edge">
<title>11 0 1&#45;&gt;12 0 0</title>
<path fill="none" stroke="black" d="M591.12,-236.24C721.97,-241.38 1128,-266.23 1128,-377 1128,-1603 1128,-1603 1128,-1603 1128,-1659.57 1088.43,-1668.43 1037,-1692 935.72,-1738.41 595.56,-1744.45 466.36,-1745.04"/>
<polygon fill="black" stroke="black" points="466.33,-1741.54 456.34,-1745.07 466.35,-1748.54 466.33,-1741.54"/>
</g>
<!-- 11 0 1&#45;&gt;7 0 5 -->
<g id="edge80" class="edge">
<title>11 0 1&#45;&gt;7 0 5</title>
<path fill="none" stroke="black" d="M523.93,-247.7C456.05,-281.63 284,-381.41 284,-521 284,-883 284,-883 284,-883 284,-943.17 313.95,-952.02 336,-1008 367.29,-1087.42 349.18,-1121.74 403,-1188 416.02,-1204.04 435.26,-1216.67 452.03,-1225.58"/>
<polygon fill="black" stroke="black" points="450.54,-1228.74 461.05,-1230.14 453.7,-1222.5 450.54,-1228.74"/>
</g>
<!-- 11 0 1&#45;&gt;3 8 1 -->
<g id="edge79" class="edge">
<title>11 0 1&#45;&gt;3 8 1</title>
<path fill="none" stroke="black" d="M581.28,-246.02C609.12,-257.36 650.07,-275.16 678.56,-288.25"/>
<polygon fill="black" stroke="black" points="677.17,-291.46 687.71,-292.49 680.11,-285.11 677.17,-291.46"/>
</g>
<!-- 11 1 0 -->
<g id="node24" class="node">
<title>11 1 0</title>
<ellipse fill="none" stroke="black" cx="452" cy="-162" rx="40.09" ry="18"/>
<text text-anchor="middle" x="452" y="-158.3" font-family="Times,serif" font-size="14.00">11 1 0</text>
</g>
<!-- 11 0 1&#45;&gt;11 1 0 -->
<g id="edge82" class="edge">
<title>11 0 1&#45;&gt;11 1 0</title>
<path fill="none" stroke="black" d="M526.45,-219.5C511.14,-209.65 491.67,-196.08 476.4,-184.71"/>
<polygon fill="black" stroke="black" points="478.49,-181.9 468.41,-178.65 474.27,-187.48 478.49,-181.9"/>
</g>
<!-- 6 6 0&#45;&gt;12 0 0 -->
<g id="edge85" class="edge">
<title>6 6 0&#45;&gt;12 0 0</title>
<path fill="none" stroke="black" d="M171.73,-25.59C114.78,-39.64 0,-78.21 0,-161 0,-1603 0,-1603 0,-1603 0,-1659.57 40.51,-1666.48 91,-1692 138.37,-1715.94 287.97,-1733.03 366.61,-1740.62"/>
<polygon fill="black" stroke="black" points="366.47,-1744.12 376.75,-1741.58 367.13,-1737.15 366.47,-1744.12"/>
</g>
<!-- 6 6 0&#45;&gt;4 8 0 -->
<g id="edge83" class="edge">
<title>6 6 0&#45;&gt;4 8 0</title>
<path fill="none" stroke="black" d="M237.46,-20.18C413.47,-26.63 1204,-61.17 1204,-161 1204,-235 1204,-235 1204,-235 1204,-342.76 1090,-341.24 1090,-449 1090,-523 1090,-523 1090,-523 1090,-619.6 1052,-640.4 1052,-737 1052,-1531 1052,-1531 1052,-1531 1052,-1602.87 983.49,-1592.74 917,-1620 841.97,-1650.76 747.61,-1664.07 693.22,-1669.52"/>
<polygon fill="black" stroke="black" points="692.83,-1666.04 683.21,-1670.48 693.5,-1673.01 692.83,-1666.04"/>
</g>
<!-- 6 6 0&#45;&gt;1 6 5 -->
<g id="edge84" class="edge">
<title>6 6 0&#45;&gt;1 6 5</title>
<path fill="none" stroke="black" d="M192.24,-35.23C171.99,-60.01 132,-109.78 132,-161 132,-1099 132,-1099 132,-1099 132,-1198.8 469.64,-1278.23 588.96,-1304.07"/>
<polygon fill="black" stroke="black" points="588.31,-1307.51 598.82,-1306.19 589.78,-1300.67 588.31,-1307.51"/>
</g>
<!-- 6 1 5 -->
<g id="node25" class="node">
<title>6 1 5</title>
<ellipse fill="none" stroke="red" cx="265" cy="-90" rx="34.39" ry="18"/>
<text text-anchor="middle" x="265" y="-86.3" font-family="Times,serif" font-size="14.00">6 1 5</text>
</g>
<!-- 6 6 0&#45;&gt;6 1 5 -->
<g id="edge86" class="edge">
<title>6 6 0&#45;&gt;6 1 5</title>
<path fill="none" stroke="black" d="M221.51,-33.57C230.56,-42.5 241.19,-54.17 249.77,-64.5"/>
<polygon fill="black" stroke="black" points="247.15,-66.82 256.15,-72.41 252.6,-62.43 247.15,-66.82"/>
</g>
<!-- 11 1 0&#45;&gt;12 0 0 -->
<g id="edge89" class="edge">
<title>11 1 0&#45;&gt;12 0 0</title>
<path fill="none" stroke="black" d="M492.43,-162.37C643.48,-161.08 1166,-166.61 1166,-305 1166,-1603 1166,-1603 1166,-1603 1166,-1656.48 1133.03,-1668.46 1085,-1692 976.28,-1745.29 603.15,-1746.98 466.59,-1745.74"/>
<polygon fill="black" stroke="black" points="466.44,-1742.23 456.41,-1745.63 466.37,-1749.23 466.44,-1742.23"/>
</g>
<!-- 11 1 0&#45;&gt;4 8 0 -->
<g id="edge87" class="edge">
<title>11 1 0&#45;&gt;4 8 0</title>
<path fill="none" stroke="black" d="M436.38,-178.77C397.69,-218.47 295.98,-326.86 232,-432 118.99,-617.7 38,-663.61 38,-881 38,-1099 38,-1099 38,-1099 38,-1397.83 211.6,-1458.46 463,-1620 506.79,-1648.14 565.74,-1661.63 605.44,-1667.9"/>
<polygon fill="black" stroke="black" points="604.94,-1671.36 615.35,-1669.38 605.97,-1664.44 604.94,-1671.36"/>
</g>
<!-- 11 1 0&#45;&gt;11 0 1 -->
<g id="edge90" class="edge">
<title>11 1 0&#45;&gt;11 0 1</title>
<path fill="none" stroke="black" d="M476.35,-176.37C491.73,-186.26 511.36,-199.94 526.71,-211.38"/>
<polygon fill="black" stroke="black" points="524.66,-214.22 534.75,-217.46 528.89,-208.64 524.66,-214.22"/>
</g>
<!-- 11 1 0&#45;&gt;6 1 5 -->
<g id="edge88" class="edge">
<title>11 1 0&#45;&gt;6 1 5</title>
<path fill="none" stroke="black" d="M419.88,-150.82C386.39,-139.09 334.3,-119.68 299.85,-106.17"/>
<polygon fill="black" stroke="black" points="300.78,-102.77 290.2,-102.35 298.21,-109.28 300.78,-102.77"/>
</g>
<!-- 6 1 5&#45;&gt;7 0 5 -->
<g id="edge92" class="edge">
<title>6 1 5&#45;&gt;7 0 5</title>
<path fill="none" stroke="black" d="M261.25,-107.95C255.71,-134.48 246,-187.48 246,-233 246,-883 246,-883 246,-883 246,-1030.36 274.04,-1081.61 376,-1188 395.26,-1208.1 423.7,-1221.47 446.96,-1229.76"/>
<polygon fill="black" stroke="black" points="445.98,-1233.12 456.57,-1233 448.22,-1226.49 445.98,-1233.12"/>
</g>
<!-- 6 1 5&#45;&gt;0 7 5 -->
<g id="edge91" class="edge">
<title>6 1 5&#45;&gt;0 7 5</title>
<path fill="none" stroke="black" d="M268.75,-107.95C274.29,-134.48 284,-187.48 284,-233 284,-307 284,-307 284,-307 284,-462.44 446.06,-596.36 513.3,-645.24"/>
<polygon fill="black" stroke="black" points="511.59,-648.32 521.76,-651.3 515.67,-642.63 511.59,-648.32"/>
</g>
<!-- 6 1 5&#45;&gt;6 6 0 -->
<g id="edge94" class="edge">
<title>6 1 5&#45;&gt;6 6 0</title>
<path fill="none" stroke="black" d="M246.56,-74.5C237.46,-65.52 226.76,-53.77 218.14,-43.4"/>
<polygon fill="black" stroke="black" points="220.74,-41.04 211.74,-35.45 215.29,-45.43 220.74,-41.04"/>
</g>
<!-- 6 1 5&#45;&gt;11 1 0 -->
<g id="edge93" class="edge">
<title>6 1 5&#45;&gt;11 1 0</title>
<path fill="none" stroke="black" d="M293.76,-100.01C326.3,-111.32 379.09,-130.95 414.72,-144.88"/>
<polygon fill="black" stroke="black" points="413.7,-148.24 424.29,-148.65 416.27,-141.73 413.7,-148.24"/>
</g>
</g>
</svg>
